inDegrees=no
DataType=double
version=3
OpenSimVersion=4.4-2022-10-11-798caa840
endheader
time	elv_angle	shoulder_elv	shoulder_rot	elbow_flexion	pro_sup	deviation	flexion
1.2010425717	0.0783617049	0.5854632795	0.2227122140	1.5089318229	0.0000000000	0.0000000000	0.0000000000
1.2052128584	0.0794416373	0.5863158577	0.2257814955	1.5080792447	0.0000000000	0.0000000000	0.0000000000
1.2093831451	0.0805273983	0.5871730374	0.2288673426	1.5072220650	0.0000000000	0.0000000000	0.0000000000
1.2135534318	0.0816189207	0.5880347656	0.2319695640	1.5063603368	0.0000000000	0.0000000000	0.0000000000
1.2177237185	0.0827161364	0.5889009885	0.2350879665	1.5054941139	0.0000000000	0.0000000000	0.0000000000
1.2218940052	0.0838189768	0.5897716520	0.2382223551	1.5046234504	0.0000000000	0.0000000000	0.0000000000
1.2260642919	0.0849273727	0.5906467014	0.2413725329	1.5037484010	0.0000000000	0.0000000000	0.0000000000
1.2302345786	0.0860412541	0.5915260815	0.2445383012	1.5028690209	0.0000000000	0.0000000000	0.0000000000
1.2344048653	0.0871605506	0.5924097366	0.2477194596	1.5019853658	0.0000000000	0.0000000000	0.0000000000
1.2385751520	0.0882851910	0.5932976106	0.2509158060	1.5010974918	0.0000000000	0.0000000000	0.0000000000
1.2427454387	0.0894151036	0.5941896468	0.2541271365	1.5002054555	0.0000000000	0.0000000000	0.0000000000
1.2469157255	0.0905502160	0.5950857883	0.2573532456	1.4993093141	0.0000000000	0.0000000000	0.0000000000
1.2510860122	0.0916904554	0.5959859773	0.2605939260	1.4984091251	0.0000000000	0.0000000000	0.0000000000
1.2552562989	0.0928357483	0.5968901559	0.2638489690	1.4975049465	0.0000000000	0.0000000000	0.0000000000
1.2594265856	0.0939860207	0.5977982656	0.2671181641	1.4965968368	0.0000000000	0.0000000000	0.0000000000
1.2635968723	0.0951411979	0.5987102476	0.2704012993	1.4956848548	0.0000000000	0.0000000000	0.0000000000
1.2677671590	0.0963012048	0.5996260426	0.2736981611	1.4947690598	0.0000000000	0.0000000000	0.0000000000
1.2719374457	0.0974659658	0.6005455907	0.2770085344	1.4938495117	0.0000000000	0.0000000000	0.0000000000
1.2761077324	0.0986354046	0.6014688319	0.2803322027	1.4929262705	0.0000000000	0.0000000000	0.0000000000
1.2802780191	0.0998094446	0.6023957055	0.2836689478	1.4919993968	0.0000000000	0.0000000000	0.0000000000
1.2844483058	0.1009880085	0.6033261507	0.2870185504	1.4910689517	0.0000000000	0.0000000000	0.0000000000
1.2886185925	0.1021710185	0.6042601060	0.2903807896	1.4901349964	0.0000000000	0.0000000000	0.0000000000
1.2927888792	0.1033583966	0.6051975098	0.2937554430	1.4891975926	0.0000000000	0.0000000000	0.0000000000
1.2969591659	0.1045500640	0.6061382998	0.2971422871	1.4882568026	0.0000000000	0.0000000000	0.0000000000
1.3011294526	0.1057459415	0.6070824136	0.3005410970	1.4873126888	0.0000000000	0.0000000000	0.0000000000
1.3052997394	0.1069459496	0.6080297884	0.3039516462	1.4863653140	0.0000000000	0.0000000000	0.0000000000
1.3094700261	0.1081500082	0.6089803610	0.3073737074	1.4854147414	0.0000000000	0.0000000000	0.0000000000
1.3136403128	0.1093580367	0.6099340677	0.3108070517	1.4844610347	0.0000000000	0.0000000000	0.0000000000
1.3178105995	0.1105699543	0.6108908448	0.3142514491	1.4835042576	0.0000000000	0.0000000000	0.0000000000
1.3219808862	0.1117856796	0.6118506279	0.3177066683	1.4825444745	0.0000000000	0.0000000000	0.0000000000
1.3261511729	0.1130051308	0.6128133526	0.3211724771	1.4815817498	0.0000000000	0.0000000000	0.0000000000
1.3303214596	0.1142282258	0.6137789539	0.3246486418	1.4806161485	0.0000000000	0.0000000000	0.0000000000
1.3344917463	0.1154548820	0.6147473667	0.3281349278	1.4796477357	0.0000000000	0.0000000000	0.0000000000
1.3386620330	0.1166850165	0.6157185254	0.3316310994	1.4786765770	0.0000000000	0.0000000000	0.0000000000
1.3428323197	0.1179185459	0.6166923644	0.3351369198	1.4777027380	0.0000000000	0.0000000000	0.0000000000
1.3470026064	0.1191553865	0.6176688176	0.3386521512	1.4767262848	0.0000000000	0.0000000000	0.0000000000
1.3511728931	0.1203954544	0.6186478185	0.3421765546	1.4757472838	0.0000000000	0.0000000000	0.0000000000
1.3553431798	0.1216386651	0.6196293007	0.3457098903	1.4747658017	0.0000000000	0.0000000000	0.0000000000
1.3595134666	0.1228849340	0.6206131971	0.3492519176	1.4737819053	0.0000000000	0.0000000000	0.0000000000
1.3636837533	0.1241341759	0.6215994408	0.3528023946	1.4727956616	0.0000000000	0.0000000000	0.0000000000
1.3678540400	0.1253863055	0.6225879641	0.3563610787	1.4718071383	0.0000000000	0.0000000000	0.0000000000
1.3720243267	0.1266412371	0.6235786997	0.3599277266	1.4708164027	0.0000000000	0.0000000000	0.0000000000
1.3761946134	0.1278988849	0.6245715794	0.3635020938	1.4698235230	0.0000000000	0.0000000000	0.0000000000
1.3803649001	0.1291591624	0.6255665354	0.3670839352	1.4688285670	0.0000000000	0.0000000000	0.0000000000
1.3845351868	0.1304219832	0.6265634992	0.3706730049	1.4678316032	0.0000000000	0.0000000000	0.0000000000
1.3887054735	0.1316872605	0.6275624023	0.3742690561	1.4668327001	0.0000000000	0.0000000000	0.0000000000
1.3928757602	0.1329549071	0.6285631760	0.3778718413	1.4658319264	0.0000000000	0.0000000000	0.0000000000
1.3970460469	0.1342248359	0.6295657513	0.3814811125	1.4648293511	0.0000000000	0.0000000000	0.0000000000
1.4012163336	0.1354969591	0.6305700591	0.3850966207	1.4638250433	0.0000000000	0.0000000000	0.0000000000
1.4053866203	0.1367711891	0.6315760302	0.3887181165	1.4628190722	0.0000000000	0.0000000000	0.0000000000
1.4095569070	0.1380474378	0.6325835949	0.3923453497	1.4618115074	0.0000000000	0.0000000000	0.0000000000
1.4137271937	0.1393256170	0.6335926838	0.3959780695	1.4608024186	0.0000000000	0.0000000000	0.0000000000
1.4178974805	0.1406056383	0.6346032269	0.3996160246	1.4597918755	0.0000000000	0.0000000000	0.0000000000
1.4220677672	0.1418874129	0.6356151542	0.4032589631	1.4587799482	0.0000000000	0.0000000000	0.0000000000
1.4262380539	0.1431708522	0.6366283958	0.4069066327	1.4577667066	0.0000000000	0.0000000000	0.0000000000
1.4304083406	0.1444558672	0.6376428812	0.4105587803	1.4567522211	0.0000000000	0.0000000000	0.0000000000
1.4345786273	0.1457423686	0.6386585402	0.4142151527	1.4557365621	0.0000000000	0.0000000000	0.0000000000
